<svg xmlns="http://www.w3.org/2000/svg" viewBox="0 0 400 300" width="406" height="306" class="illustration"><g id="_171_revenue_flatline" data-name="#171_revenue_flatline"><path d="M69.25,233.64a.5.5,0,0,1-.5-.5V58.85a.5.5,0,1,1,1,0V233.14A.5.5,0,0,1,69.25,233.64Z" fill="#d1d3d4"></path><path d="M136.9,233.64a.5.5,0,0,1-.5-.5V58.85a.5.5,0,1,1,1,0V233.14A.5.5,0,0,1,136.9,233.64Z" fill="#d1d3d4"></path><path d="M204.55,233.64a.5.5,0,0,1-.5-.5V58.85a.5.5,0,0,1,1,0V233.14A.5.5,0,0,1,204.55,233.64Z" fill="#d1d3d4"></path><path d="M272.2,233.64a.5.5,0,0,1-.5-.5V58.85a.5.5,0,0,1,1,0V233.14A.5.5,0,0,1,272.2,233.64Z" fill="#d1d3d4"></path><path d="M339.85,233.64a.5.5,0,0,1-.5-.5V58.85a.5.5,0,0,1,1,0V233.14A.5.5,0,0,1,339.85,233.64Z" fill="#d1d3d4"></path><path d="M339.85,59.35H69.25a.5.5,0,0,1-.5-.5.5.5,0,0,1,.5-.5h270.6a.5.5,0,0,1,.5.5A.5.5,0,0,1,339.85,59.35Z" fill="#d1d3d4"></path><path d="M339.85,117H69.25a.5.5,0,0,1-.5-.5.5.5,0,0,1,.5-.5h270.6a.5.5,0,0,1,.5.5A.5.5,0,0,1,339.85,117Z" fill="#d1d3d4"></path><path d="M339.85,174.6H69.25a.5.5,0,0,1,0-1h270.6a.5.5,0,0,1,0,1Z" fill="#d1d3d4"></path><path d="M355.29,234.14H44.71a.5.5,0,1,1,0-1H355.29a.5.5,0,1,1,0,1Z" fill="#d1d3d4"></path><polygon points="50.76 233.64 133.98 233.64 316.7 100.04 329.77 117.98 351.11 44.6 274.71 42.41 287.78 60.35 50.76 233.64" fill="#695BCE"></polygon><path d="M86.64,226.81v12.33c0,4.67,13.34,8.46,29.8,8.46s29.79-3.79,29.79-8.46V226.81Z" fill="#fff"></path><path d="M116.44,248.1c-17,0-30.3-3.94-30.3-9V226.81a.5.5,0,0,1,.5-.5h59.59a.5.5,0,0,1,.5.5v12.33C146.73,244.16,133.43,248.1,116.44,248.1Zm-29.3-20.79v11.83c0,3.84,11.77,8,29.3,8s29.29-4.12,29.29-8V227.31Z" fill="#231f20"></path><ellipse cx="116.44" cy="226.81" rx="29.8" ry="8.45" fill="#231f20"></ellipse><path d="M116.44,235.71c-17,0-30.24-3.91-30.24-8.9s13.28-8.89,30.24-8.89,30.23,3.91,30.23,8.89S133.39,235.71,116.44,235.71Zm0-16.91c-17.56,0-29.36,4.14-29.36,8s11.8,8,29.36,8,29.35-4.14,29.35-8S134,218.8,116.44,218.8Z" fill="#231f20"></path><path d="M93.66,209.91v12.33c0,4.67,13.34,8.45,29.79,8.45s29.8-3.78,29.8-8.45V209.91Z" fill="#fff"></path><path d="M123.45,231.19c-17,0-30.29-3.93-30.29-8.95V209.91a.5.5,0,0,1,.5-.5h59.59a.5.5,0,0,1,.5.5v12.33C153.75,227.26,140.44,231.19,123.45,231.19ZM94.16,210.41v11.83c0,3.84,11.77,7.95,29.29,7.95s29.3-4.11,29.3-7.95V210.41Z" fill="#231f20"></path><ellipse cx="123.45" cy="209.91" rx="29.8" ry="8.45" fill="#231f20"></ellipse><path d="M123.45,218.8c-17,0-30.23-3.9-30.23-8.89S106.5,201,123.45,201s30.24,3.9,30.24,8.89S140.41,218.8,123.45,218.8Zm0-16.9c-17.56,0-29.35,4.14-29.35,8s11.79,8,29.35,8,29.36-4.14,29.36-8S141,201.9,123.45,201.9Z" fill="#231f20"></path><path d="M87.56,191.07V203.4c0,4.67,13.34,8.45,29.8,8.45s29.8-3.78,29.8-8.45V191.07Z" fill="#fff"></path><path d="M117.36,212.35c-17,0-30.3-3.93-30.3-8.95V191.07a.5.5,0,0,1,.5-.5h59.6a.5.5,0,0,1,.5.5V203.4C147.66,208.42,134.35,212.35,117.36,212.35Zm-29.3-20.78V203.4c0,3.84,11.77,7.95,29.3,7.95s29.3-4.11,29.3-7.95V191.57Z" fill="#231f20"></path><ellipse cx="117.36" cy="191.07" rx="29.8" ry="8.45" fill="#fff"></ellipse><path d="M117.36,200c-17,0-30.3-3.93-30.3-9s13.31-8.95,30.3-8.95,30.3,3.93,30.3,8.95S134.35,200,117.36,200Zm0-16.9c-17.53,0-29.3,4.11-29.3,7.95s11.77,8,29.3,8,29.3-4.11,29.3-8S134.88,183.12,117.36,183.12Z" fill="#231f20"></path><path d="M117.36,196.69c-12.36,0-25.5-2-25.5-5.62s13.14-5.63,25.5-5.63,25.49,2,25.49,5.63S129.72,196.69,117.36,196.69Zm0-10.25c-14.44,0-24.5,2.44-24.5,4.63s10.06,4.62,24.5,4.62,24.49-2.43,24.49-4.62S131.79,186.44,117.36,186.44Z" fill="#d1d3d4"></path><path d="M167.51,226.74v12.33c0,4.67,13.34,8.46,29.8,8.46s29.8-3.79,29.8-8.46V226.74Z" fill="#fff"></path><path d="M197.31,248c-17,0-30.3-3.94-30.3-9V226.74a.51.51,0,0,1,.5-.5h59.6a.51.51,0,0,1,.5.5v12.33C227.61,244.09,214.3,248,197.31,248ZM168,227.24v11.83c0,3.85,11.78,8,29.3,8s29.3-4.11,29.3-8V227.24Z" fill="#231f20"></path><ellipse cx="197.31" cy="226.74" rx="29.8" ry="8.45" fill="#231f20"></ellipse><path d="M197.31,235.64c-17,0-30.24-3.91-30.24-8.9s13.28-8.89,30.24-8.89,30.24,3.91,30.24,8.89S214.27,235.64,197.31,235.64Zm0-16.91c-17.56,0-29.36,4.15-29.36,8s11.8,8,29.36,8,29.36-4.14,29.36-8S214.87,218.73,197.31,218.73Z" fill="#231f20"></path><path d="M163.63,212.13v12.33c0,4.67,13.35,8.45,29.8,8.45s29.8-3.78,29.8-8.45V212.13Z" fill="#fff"></path><path d="M193.43,233.41c-17,0-30.3-3.93-30.3-8.95V212.13a.5.5,0,0,1,.5-.5h59.6a.5.5,0,0,1,.5.5v12.33C223.73,229.48,210.42,233.41,193.43,233.41Zm-29.3-20.78v11.83c0,3.84,11.78,7.95,29.3,7.95s29.3-4.11,29.3-7.95V212.63Z" fill="#231f20"></path><ellipse cx="193.43" cy="212.13" rx="29.8" ry="8.45" fill="#231f20"></ellipse><path d="M193.43,221c-17,0-30.24-3.91-30.24-8.89s13.29-8.89,30.24-8.89,30.24,3.9,30.24,8.89S210.39,221,193.43,221Zm0-16.9c-17.56,0-29.35,4.14-29.35,8s11.79,8,29.35,8,29.36-4.14,29.36-8S211,204.12,193.43,204.12Z" fill="#231f20"></path><path d="M168.44,194.32v12.34c0,4.66,13.34,8.45,29.79,8.45s29.8-3.79,29.8-8.45V194.32Z" fill="#fff"></path><path d="M198.23,215.61c-17,0-30.29-3.94-30.29-9V194.32a.5.5,0,0,1,.5-.5H228a.5.5,0,0,1,.5.5v12.34C228.53,211.67,215.22,215.61,198.23,215.61Zm-29.29-20.79v11.84c0,3.84,11.77,8,29.29,8s29.3-4.11,29.3-8V194.82Z" fill="#231f20"></path><ellipse cx="198.23" cy="194.32" rx="29.8" ry="8.45" fill="#231f20"></ellipse><path d="M198.23,203.22c-16.95,0-30.23-3.91-30.23-8.9s13.28-8.89,30.23-8.89,30.24,3.91,30.24,8.89S215.19,203.22,198.23,203.22Zm0-16.91c-17.56,0-29.35,4.15-29.35,8s11.79,8,29.35,8,29.36-4.14,29.36-8S215.79,186.31,198.23,186.31Z" fill="#231f20"></path><path d="M163.63,176.45v12.33c0,4.67,13.35,8.45,29.8,8.45s29.8-3.78,29.8-8.45V176.45Z" fill="#fff"></path><path d="M193.43,197.73c-17,0-30.3-3.93-30.3-8.95V176.45a.51.51,0,0,1,.5-.5h59.6a.5.5,0,0,1,.5.5v12.33C223.73,193.8,210.42,197.73,193.43,197.73ZM164.13,177v11.83c0,3.84,11.78,7.95,29.3,7.95s29.3-4.11,29.3-7.95V177Z" fill="#231f20"></path><ellipse cx="193.43" cy="176.45" rx="29.8" ry="8.45" fill="#231f20"></ellipse><path d="M193.43,185.34c-17,0-30.24-3.9-30.24-8.89s13.29-8.89,30.24-8.89,30.24,3.91,30.24,8.89S210.39,185.34,193.43,185.34Zm0-16.9c-17.56,0-29.35,4.14-29.35,8s11.79,8,29.35,8,29.36-4.14,29.36-8S211,168.44,193.43,168.44Z" fill="#231f20"></path><path d="M173.24,161.84v12.33c0,4.66,13.34,8.45,29.8,8.45s29.79-3.79,29.79-8.45V161.84Z" fill="#fff"></path><path d="M203,183.12c-17,0-30.3-3.93-30.3-9V161.84a.5.5,0,0,1,.5-.5h59.59a.5.5,0,0,1,.5.5v12.33C233.33,179.19,220,183.12,203,183.12Zm-29.3-20.78v11.83c0,3.84,11.77,8,29.3,8s29.29-4.11,29.29-8V162.34Z" fill="#231f20"></path><ellipse cx="203.04" cy="161.84" rx="29.8" ry="8.45" fill="#231f20"></ellipse><path d="M203,170.73c-17,0-30.24-3.91-30.24-8.9s13.28-8.89,30.24-8.89,30.23,3.91,30.23,8.89S220,170.73,203,170.73Zm0-16.91c-17.56,0-29.36,4.15-29.36,8s11.8,8,29.36,8,29.35-4.15,29.35-8S220.6,153.82,203,153.82Z" fill="#231f20"></path><path d="M166.7,147.22v12.33c0,4.67,13.34,8.45,29.8,8.45s29.8-3.78,29.8-8.45V147.22Z" fill="#fff"></path><path d="M196.5,168.5c-17,0-30.3-3.93-30.3-8.95V147.22a.5.5,0,0,1,.5-.5h59.6a.5.5,0,0,1,.5.5v12.33C226.8,164.57,213.49,168.5,196.5,168.5Zm-29.3-20.78v11.83c0,3.84,11.77,7.95,29.3,7.95s29.3-4.11,29.3-7.95V147.72Z" fill="#231f20"></path><ellipse cx="196.5" cy="147.22" rx="29.8" ry="8.45" fill="#fff"></ellipse><path d="M196.5,156.17c-17,0-30.3-3.93-30.3-8.95s13.31-8.95,30.3-8.95,30.3,3.93,30.3,8.95S213.49,156.17,196.5,156.17Zm0-16.9c-17.53,0-29.3,4.11-29.3,7.95s11.77,7.95,29.3,7.95,29.3-4.11,29.3-7.95S214,139.27,196.5,139.27Z" fill="#231f20"></path><path d="M196.5,152.84c-12.36,0-25.5-2-25.5-5.62s13.14-5.63,25.5-5.63,25.49,2,25.49,5.63S208.86,152.84,196.5,152.84Zm0-10.25c-14.44,0-24.5,2.44-24.5,4.63s10.06,4.62,24.5,4.62S221,149.41,221,147.22,210.93,142.59,196.5,142.59Z" fill="#d1d3d4"></path><path d="M309.48,226.74v12.33c0,4.67-13.34,8.46-29.79,8.46s-29.8-3.79-29.8-8.46V226.74Z" fill="#fff"></path><path d="M279.69,248c-17,0-30.3-3.94-30.3-9V226.74a.5.5,0,0,1,.5-.5h59.59a.5.5,0,0,1,.5.5v12.33C310,244.09,296.67,248,279.69,248Zm-29.3-20.79v11.83c0,3.85,11.77,8,29.3,8s29.29-4.11,29.29-8V227.24Z" fill="#231f20"></path><ellipse cx="279.69" cy="226.74" rx="29.8" ry="8.45" fill="#231f20"></ellipse><path d="M279.69,235.64c-17,0-30.24-3.91-30.24-8.9s13.28-8.89,30.24-8.89,30.23,3.91,30.23,8.89S296.64,235.64,279.69,235.64Zm0-16.91c-17.57,0-29.36,4.15-29.36,8s11.79,8,29.36,8,29.35-4.14,29.35-8S297.25,218.73,279.69,218.73Z" fill="#231f20"></path><path d="M313.36,212.13v12.33c0,4.67-13.34,8.45-29.8,8.45s-29.79-3.78-29.79-8.45V212.13Z" fill="#fff"></path><path d="M283.56,233.41c-17,0-30.29-3.93-30.29-8.95V212.13a.5.5,0,0,1,.5-.5h59.59a.5.5,0,0,1,.5.5v12.33C313.86,229.48,300.55,233.41,283.56,233.41Zm-29.29-20.78v11.83c0,3.84,11.77,7.95,29.29,7.95s29.3-4.11,29.3-7.95V212.63Z" fill="#231f20"></path><ellipse cx="283.56" cy="212.13" rx="29.8" ry="8.45" fill="#231f20"></ellipse><path d="M283.56,221c-16.95,0-30.23-3.91-30.23-8.89s13.28-8.89,30.23-8.89,30.24,3.9,30.24,8.89S300.52,221,283.56,221Zm0-16.9c-17.56,0-29.35,4.14-29.35,8s11.79,8,29.35,8,29.36-4.14,29.36-8S301.12,204.12,283.56,204.12Z" fill="#231f20"></path><path d="M308.56,194.32v12.34c0,4.66-13.34,8.45-29.8,8.45s-29.8-3.79-29.8-8.45V194.32Z" fill="#fff"></path><path d="M278.76,215.61c-17,0-30.3-3.94-30.3-9V194.32a.51.51,0,0,1,.5-.5h59.6a.5.5,0,0,1,.5.5v12.34C309.06,211.67,295.75,215.61,278.76,215.61Zm-29.3-20.79v11.84c0,3.84,11.78,8,29.3,8s29.3-4.11,29.3-8V194.82Z" fill="#231f20"></path><ellipse cx="278.76" cy="194.32" rx="29.8" ry="8.45" fill="#231f20"></ellipse><path d="M278.76,203.22c-16.95,0-30.24-3.91-30.24-8.9s13.29-8.89,30.24-8.89S309,189.34,309,194.32,295.72,203.22,278.76,203.22Zm0-16.91c-17.56,0-29.35,4.15-29.35,8s11.79,8,29.35,8,29.36-4.14,29.36-8S296.32,186.31,278.76,186.31Z" fill="#231f20"></path><path d="M313.36,176.45v12.33c0,4.67-13.34,8.45-29.8,8.45s-29.79-3.78-29.79-8.45V176.45Z" fill="#fff"></path><path d="M283.56,197.73c-17,0-30.29-3.93-30.29-8.95V176.45a.5.5,0,0,1,.5-.5h59.59a.5.5,0,0,1,.5.5v12.33C313.86,193.8,300.55,197.73,283.56,197.73ZM254.27,177v11.83c0,3.84,11.77,7.95,29.29,7.95s29.3-4.11,29.3-7.95V177Z" fill="#231f20"></path><ellipse cx="283.56" cy="176.45" rx="29.8" ry="8.45" fill="#231f20"></ellipse><path d="M283.56,185.34c-16.95,0-30.23-3.9-30.23-8.89s13.28-8.89,30.23-8.89,30.24,3.91,30.24,8.89S300.52,185.34,283.56,185.34Zm0-16.9c-17.56,0-29.35,4.14-29.35,8s11.79,8,29.35,8,29.36-4.14,29.36-8S301.12,168.44,283.56,168.44Z" fill="#231f20"></path><path d="M303.76,161.84v12.33c0,4.66-13.34,8.45-29.8,8.45s-29.8-3.79-29.8-8.45V161.84Z" fill="#fff"></path><path d="M274,183.12c-17,0-30.3-3.93-30.3-9V161.84a.5.5,0,0,1,.5-.5h59.6a.5.5,0,0,1,.5.5v12.33C304.26,179.19,291,183.12,274,183.12Zm-29.3-20.78v11.83c0,3.84,11.77,8,29.3,8s29.3-4.11,29.3-8V162.34Z" fill="#231f20"></path><ellipse cx="273.96" cy="161.84" rx="29.8" ry="8.45" fill="#231f20"></ellipse><path d="M274,170.73c-17,0-30.24-3.91-30.24-8.9S257,152.94,274,152.94s30.24,3.91,30.24,8.89S290.92,170.73,274,170.73Zm0-16.91c-17.56,0-29.36,4.15-29.36,8s11.8,8,29.36,8,29.36-4.15,29.36-8S291.52,153.82,274,153.82Z" fill="#231f20"></path><path d="M310.29,147.22v12.33c0,4.67-13.34,8.45-29.79,8.45s-29.8-3.78-29.8-8.45V147.22Z" fill="#fff"></path><path d="M280.5,168.5c-17,0-30.3-3.93-30.3-8.95V147.22a.5.5,0,0,1,.5-.5h59.59a.5.5,0,0,1,.5.5v12.33C310.79,164.57,297.49,168.5,280.5,168.5Zm-29.3-20.78v11.83c0,3.84,11.77,7.95,29.3,7.95s29.29-4.11,29.29-7.95V147.72Z" fill="#231f20"></path><ellipse cx="280.5" cy="147.22" rx="29.8" ry="8.45" fill="#231f20"></ellipse><path d="M280.5,156.11c-17,0-30.24-3.9-30.24-8.89s13.28-8.89,30.24-8.89,30.24,3.9,30.24,8.89S297.45,156.11,280.5,156.11Zm0-16.9c-17.56,0-29.36,4.14-29.36,8s11.8,8,29.36,8,29.35-4.14,29.35-8S298.06,139.21,280.5,139.21Z" fill="#231f20"></path><path d="M311.34,130.66V143c0,4.67-13.34,8.45-29.8,8.45s-29.79-3.78-29.79-8.45V130.66Z" fill="#fff"></path><path d="M281.54,151.94c-17,0-30.29-3.93-30.29-8.95V130.66a.5.5,0,0,1,.5-.5h59.59a.5.5,0,0,1,.5.5V143C311.84,148,298.53,151.94,281.54,151.94Zm-29.29-20.78V143c0,3.84,11.77,7.95,29.29,7.95s29.3-4.11,29.3-7.95V131.16Z" fill="#231f20"></path><ellipse cx="281.54" cy="130.66" rx="29.8" ry="8.45" fill="#231f20"></ellipse><path d="M281.54,139.55c-17,0-30.23-3.9-30.23-8.89s13.28-8.89,30.23-8.89,30.24,3.91,30.24,8.89S298.5,139.55,281.54,139.55Zm0-16.9c-17.56,0-29.35,4.14-29.35,8s11.79,8,29.35,8,29.36-4.14,29.36-8S299.1,122.65,281.54,122.65Z" fill="#231f20"></path><path d="M305.49,114.52v12.33c0,4.67-13.34,8.45-29.8,8.45s-29.79-3.78-29.79-8.45V114.52Z" fill="#fff"></path><path d="M275.69,135.8c-17,0-30.29-3.93-30.29-9V114.52a.5.5,0,0,1,.5-.5h59.59a.5.5,0,0,1,.5.5v12.33C306,131.87,292.68,135.8,275.69,135.8ZM246.4,115v11.83c0,3.84,11.77,8,29.29,8s29.3-4.11,29.3-8V115Z" fill="#231f20"></path><ellipse cx="275.69" cy="114.52" rx="29.8" ry="8.45" fill="#231f20"></ellipse><path d="M275.69,123.41c-16.95,0-30.23-3.9-30.23-8.89s13.28-8.89,30.23-8.89,30.24,3.91,30.24,8.89S292.65,123.41,275.69,123.41Zm0-16.9c-17.56,0-29.35,4.14-29.35,8s11.79,8,29.35,8,29.36-4.14,29.36-8S293.26,106.51,275.69,106.51Z" fill="#231f20"></path><path d="M313.36,98V110.3c0,4.66-13.34,8.45-29.8,8.45s-29.79-3.79-29.79-8.45V98Z" fill="#fff"></path><path d="M283.56,119.25c-17,0-30.29-3.93-30.29-9V98a.5.5,0,0,1,.5-.5h59.59a.5.5,0,0,1,.5.5V110.3C313.86,115.32,300.55,119.25,283.56,119.25ZM254.27,98.47V110.3c0,3.84,11.77,8,29.29,8s29.3-4.11,29.3-8V98.47Z" fill="#231f20"></path><ellipse cx="283.56" cy="97.97" rx="29.8" ry="8.45" fill="#fff"></ellipse><path d="M283.56,106.92c-17,0-30.29-3.94-30.29-9s13.3-9,30.29-9,30.3,3.94,30.3,9S300.55,106.92,283.56,106.92Zm0-16.91c-17.52,0-29.29,4.11-29.29,8s11.77,8,29.29,8,29.3-4.11,29.3-8S301.09,90,283.56,90Z" fill="#231f20"></path><path d="M283.56,103.59c-12.36,0-25.49-2-25.49-5.62s13.13-5.63,25.49-5.63,25.5,2,25.5,5.63S295.92,103.59,283.56,103.59Zm0-10.25c-14.43,0-24.49,2.44-24.49,4.63s10.06,4.62,24.49,4.62,24.5-2.44,24.5-4.62S298,93.34,283.56,93.34Z" fill="#d1d3d4"></path></g></svg>