<svg width="362" height="247" viewBox="0 0 362 247" fill="none" xmlns="http://www.w3.org/2000/svg">
<path d="M23.076 229.636C22.9168 229.636 22.764 229.573 22.6514 229.46C22.5388 229.348 22.4756 229.195 22.4756 229.036V19.7418C22.4756 19.5825 22.5388 19.4298 22.6514 19.3172C22.764 19.2046 22.9168 19.1414 23.076 19.1414C23.2352 19.1414 23.388 19.2046 23.5006 19.3172C23.6132 19.4298 23.6764 19.5825 23.6764 19.7418V229.036C23.6764 229.195 23.6132 229.348 23.5006 229.46C23.388 229.573 23.2352 229.636 23.076 229.636Z" fill="#D1D3D4"/>
<path d="M104.313 229.636C104.153 229.636 104.001 229.573 103.888 229.46C103.775 229.348 103.712 229.195 103.712 229.036V19.7418C103.712 19.5825 103.775 19.4298 103.888 19.3172C104.001 19.2046 104.153 19.1414 104.313 19.1414C104.472 19.1414 104.625 19.2046 104.737 19.3172C104.85 19.4298 104.913 19.5825 104.913 19.7418V229.036C104.913 229.195 104.85 229.348 104.737 229.46C104.625 229.573 104.472 229.636 104.313 229.636Z" fill="#D1D3D4"/>
<path d="M185.549 229.636C185.39 229.636 185.237 229.573 185.125 229.46C185.012 229.348 184.949 229.195 184.949 229.036V19.7418C184.949 19.5825 185.012 19.4298 185.125 19.3172C185.237 19.2046 185.39 19.1414 185.549 19.1414C185.709 19.1414 185.861 19.2046 185.974 19.3172C186.086 19.4298 186.15 19.5825 186.15 19.7418V229.036C186.15 229.195 186.086 229.348 185.974 229.46C185.861 229.573 185.709 229.636 185.549 229.636Z" fill="#D1D3D4"/>
<path d="M266.786 229.636C266.627 229.636 266.474 229.573 266.361 229.46C266.249 229.348 266.185 229.195 266.185 229.036V19.7418C266.185 19.5825 266.249 19.4298 266.361 19.3172C266.474 19.2046 266.627 19.1414 266.786 19.1414C266.945 19.1414 267.098 19.2046 267.21 19.3172C267.323 19.4298 267.386 19.5825 267.386 19.7418V229.036C267.386 229.195 267.323 229.348 267.21 229.46C267.098 229.573 266.945 229.636 266.786 229.636Z" fill="#D1D3D4"/>
<path d="M348.022 229.636C347.863 229.636 347.71 229.573 347.598 229.46C347.485 229.348 347.422 229.195 347.422 229.036V19.7418C347.422 19.5825 347.485 19.4298 347.598 19.3172C347.71 19.2046 347.863 19.1414 348.022 19.1414C348.182 19.1414 348.334 19.2046 348.447 19.3172C348.56 19.4298 348.623 19.5825 348.623 19.7418V229.036C348.623 229.195 348.56 229.348 348.447 229.46C348.334 229.573 348.182 229.636 348.022 229.636Z" fill="#D1D3D4"/>
<path d="M348.022 20.3422H23.076C22.9168 20.3422 22.764 20.2789 22.6514 20.1663C22.5388 20.0537 22.4756 19.901 22.4756 19.7418C22.4756 19.5825 22.5388 19.4298 22.6514 19.3172C22.764 19.2046 22.9168 19.1414 23.076 19.1414H348.022C348.182 19.1414 348.334 19.2046 348.447 19.3172C348.56 19.4298 348.623 19.5825 348.623 19.7418C348.623 19.901 348.56 20.0537 348.447 20.1663C348.334 20.2789 348.182 20.3422 348.022 20.3422Z" fill="#D1D3D4"/>
<path d="M348.022 89.5703H23.076C22.9168 89.5703 22.764 89.5071 22.6514 89.3945C22.5388 89.2819 22.4756 89.1292 22.4756 88.9699C22.4756 88.8107 22.5388 88.658 22.6514 88.5454C22.764 88.4328 22.9168 88.3695 23.076 88.3695H348.022C348.182 88.3695 348.334 88.4328 348.447 88.5454C348.56 88.658 348.623 88.8107 348.623 88.9699C348.623 89.1292 348.56 89.2819 348.447 89.3945C348.334 89.5071 348.182 89.5703 348.022 89.5703Z" fill="#D1D3D4"/>
<path d="M348.022 158.739H23.076C22.9168 158.739 22.764 158.676 22.6514 158.563C22.5388 158.45 22.4756 158.298 22.4756 158.139C22.4756 157.979 22.5388 157.827 22.6514 157.714C22.764 157.601 22.9168 157.538 23.076 157.538H348.022C348.182 157.538 348.334 157.601 348.447 157.714C348.56 157.827 348.623 157.979 348.623 158.139C348.623 158.298 348.56 158.45 348.447 158.563C348.334 158.676 348.182 158.739 348.022 158.739Z" fill="#D1D3D4"/>
<path d="M348.483 230.006H0.918429C0.770029 230.006 0.627707 229.95 0.522772 229.852C0.417838 229.753 0.358887 229.62 0.358887 229.48C0.358887 229.341 0.417838 229.208 0.522772 229.109C0.627707 229.011 0.770029 228.955 0.918429 228.955H348.483C348.632 228.955 348.774 229.011 348.879 229.109C348.984 229.208 349.043 229.341 349.043 229.48C349.043 229.62 348.984 229.753 348.879 229.852C348.774 229.95 348.632 230.006 348.483 230.006Z" fill="#D1D3D4"/>
<path d="M0.87262 229.636H100.806L320.223 69.2042L335.918 90.7472L361.544 2.62983L269.8 0L285.495 21.543L0.87262 229.636Z" fill="#05299E"/>
<path d="M43.9586 221.434V236.24C43.9586 241.848 59.9778 246.399 79.7435 246.399C99.5093 246.399 115.516 241.848 115.516 236.24V221.434H43.9586Z" fill="white"/>
<path d="M79.7435 247C59.3293 247 43.3582 242.269 43.3582 236.192V221.434C43.3582 221.275 43.4214 221.122 43.534 221.01C43.6466 220.897 43.7993 220.834 43.9586 220.834H115.516C115.676 220.834 115.828 220.897 115.941 221.01C116.054 221.122 116.117 221.275 116.117 221.434V236.24C116.117 242.269 100.146 247 79.7435 247ZM44.559 222.035V236.24C44.559 240.852 58.6928 245.847 79.7435 245.847C100.794 245.847 114.916 240.9 114.916 236.24V222.035H44.559Z" fill="#231F20"/>
<path d="M79.7435 231.581C99.507 231.581 115.528 227.038 115.528 221.434C115.528 215.83 99.507 211.287 79.7435 211.287C59.9801 211.287 43.9586 215.83 43.9586 221.434C43.9586 227.038 59.9801 231.581 79.7435 231.581Z" fill="#231F20"/>
<path d="M79.7435 232.121C59.3293 232.121 43.4302 227.426 43.4302 221.434C43.4302 215.442 59.3774 210.759 79.7435 210.759C100.11 210.759 116.045 215.454 116.045 221.434C116.045 227.414 100.098 232.121 79.7435 232.121ZM79.7435 211.815C58.6568 211.815 44.487 216.787 44.487 221.422C44.487 226.057 58.6568 231.029 79.7435 231.029C100.83 231.029 114.988 226.057 114.988 221.422C114.988 216.787 100.83 211.815 79.7435 211.815Z" fill="#231F20"/>
<path d="M52.3885 201.14V215.946C52.3885 221.554 68.4076 226.093 88.1614 226.093C107.915 226.093 123.946 221.554 123.946 215.946V201.14H52.3885Z" fill="white"/>
<path d="M88.1614 226.694C67.7472 226.694 51.7881 221.974 51.7881 215.946V201.14C51.7881 200.981 51.8513 200.828 51.9639 200.715C52.0765 200.603 52.2293 200.54 52.3885 200.54H123.946C124.106 200.54 124.258 200.603 124.371 200.715C124.483 200.828 124.547 200.981 124.547 201.14V215.946C124.547 221.974 108.564 226.694 88.1614 226.694ZM52.9889 201.74V215.946C52.9889 220.557 67.1228 225.493 88.1614 225.493C109.2 225.493 123.346 220.557 123.346 215.946V201.74H52.9889Z" fill="#231F20"/>
<path d="M88.1613 211.287C107.925 211.287 123.946 206.744 123.946 201.14C123.946 195.536 107.925 190.993 88.1613 190.993C68.3979 190.993 52.3764 195.536 52.3764 201.14C52.3764 206.744 68.3979 211.287 88.1613 211.287Z" fill="#231F20"/>
<path d="M88.1614 211.815C67.7472 211.815 51.8601 207.132 51.8601 201.14C51.8601 195.148 67.8072 190.44 88.1614 190.44C108.516 190.44 124.475 195.124 124.475 201.116C124.475 207.108 108.528 211.815 88.1614 211.815ZM88.1614 191.521C67.0747 191.521 52.9168 196.493 52.9168 201.128C52.9168 205.763 67.0747 210.735 88.1614 210.735C109.248 210.735 123.418 205.763 123.418 201.128C123.418 196.493 109.236 191.521 88.1614 191.521Z" fill="#231F20"/>
<path d="M45.0634 178.516V193.323C45.0634 198.931 61.0825 203.47 80.8483 203.47C100.614 203.47 116.633 198.931 116.633 193.323V178.516H45.0634Z" fill="white"/>
<path d="M80.8482 204.07C60.434 204.07 44.4629 199.351 44.4629 193.322V178.516C44.4629 178.357 44.5261 178.204 44.6387 178.092C44.7513 177.979 44.9041 177.916 45.0633 177.916H116.633C116.792 177.916 116.945 177.979 117.058 178.092C117.17 178.204 117.234 178.357 117.234 178.516V193.322C117.234 199.351 101.25 204.07 80.8482 204.07ZM45.6637 179.117V193.322C45.6637 197.934 59.7976 202.869 80.8482 202.869C101.899 202.869 116.033 197.934 116.033 193.322V179.117H45.6637Z" fill="#231F20"/>
<path d="M80.8483 188.663C100.612 188.663 116.633 184.12 116.633 178.516C116.633 172.912 100.612 168.369 80.8483 168.369C61.0848 168.369 45.0634 172.912 45.0634 178.516C45.0634 184.12 61.0848 188.663 80.8483 188.663Z" fill="white"/>
<path d="M80.8482 189.24C60.434 189.24 44.4629 184.521 44.4629 178.432C44.4629 172.344 60.446 167.685 80.8482 167.685C101.25 167.685 117.234 172.404 117.234 178.432C117.234 184.46 101.25 189.24 80.8482 189.24ZM80.8482 168.946C59.7976 168.946 45.6637 173.881 45.6637 178.492C45.6637 183.104 59.7976 188.099 80.8482 188.099C101.899 188.099 116.033 183.164 116.033 178.492C116.033 173.821 101.887 168.97 80.8482 168.97V168.946Z" fill="#231F20"/>
<path d="M80.8483 185.265C66.0059 185.265 50.2269 182.863 50.2269 178.516C50.2269 174.169 66.0059 171.756 80.8483 171.756C95.6906 171.756 111.458 174.157 111.458 178.516C111.458 182.875 95.6906 185.265 80.8483 185.265ZM80.8483 172.956C63.5082 172.956 51.4278 175.886 51.4278 178.516C51.4278 181.146 63.5082 184.064 80.8483 184.064C98.1883 184.064 110.257 181.146 110.257 178.516C110.257 175.886 98.1763 172.956 80.8483 172.956Z" fill="#D1D3D4"/>
<path d="M141.07 221.35V236.156C141.07 241.764 157.089 246.315 176.855 246.315C196.621 246.315 212.64 241.764 212.64 236.156V221.35H141.07Z" fill="white"/>
<path d="M176.855 246.88C156.441 246.88 140.47 242.148 140.47 236.072V221.35C140.473 221.192 140.537 221.041 140.649 220.929C140.761 220.817 140.912 220.753 141.07 220.75H212.64C212.798 220.753 212.949 220.817 213.061 220.929C213.173 221.041 213.237 221.192 213.24 221.35V236.156C213.24 242.184 197.257 246.88 176.855 246.88ZM141.659 221.95V236.156C141.659 240.779 155.804 245.763 176.843 245.763C197.882 245.763 212.028 240.827 212.028 236.156V221.95H141.659Z" fill="#231F20"/>
<path d="M176.855 231.497C196.619 231.497 212.64 226.954 212.64 221.35C212.64 215.746 196.619 211.203 176.855 211.203C157.092 211.203 141.07 215.746 141.07 221.35C141.07 226.954 157.092 231.497 176.855 231.497Z" fill="#231F20"/>
<path d="M176.855 232.038C156.441 232.038 140.542 227.342 140.542 221.35C140.542 215.358 156.489 210.675 176.855 210.675C197.221 210.675 213.168 215.37 213.168 221.35C213.168 227.33 197.221 232.038 176.855 232.038ZM176.855 211.732C155.768 211.732 141.599 216.715 141.599 221.338C141.599 225.961 155.768 230.945 176.855 230.945C197.942 230.945 212.112 225.973 212.112 221.338C212.112 216.703 197.942 211.732 176.855 211.732Z" fill="#231F20"/>
<path d="M136.411 203.806V218.612C136.411 224.22 152.442 228.76 172.196 228.76C191.95 228.76 207.981 224.22 207.981 218.612V203.806H136.411Z" fill="white"/>
<path d="M172.196 229.36C151.782 229.36 135.811 224.64 135.811 218.612V203.806C135.811 203.647 135.874 203.494 135.986 203.381C136.099 203.269 136.252 203.206 136.411 203.206H207.981C208.14 203.206 208.293 203.269 208.405 203.381C208.518 203.494 208.581 203.647 208.581 203.806V218.612C208.581 224.64 192.598 229.36 172.196 229.36ZM137.011 204.406V218.612C137.011 223.224 151.157 228.159 172.196 228.159C193.235 228.159 207.38 223.224 207.38 218.612V204.406H137.011Z" fill="#231F20"/>
<path d="M172.196 213.953C191.959 213.953 207.981 209.41 207.981 203.806C207.981 198.202 191.959 193.659 172.196 193.659C152.432 193.659 136.411 198.202 136.411 203.806C136.411 209.41 152.432 213.953 172.196 213.953Z" fill="#231F20"/>
<path d="M172.196 214.458C151.782 214.458 135.883 209.762 135.883 203.782C135.883 197.802 151.842 193.107 172.196 193.107C192.55 193.107 208.509 197.79 208.509 203.782C208.509 209.774 192.562 214.458 172.196 214.458ZM172.196 194.163C151.109 194.163 136.951 199.135 136.951 203.77C136.951 208.405 151.109 213.377 172.196 213.377C193.283 213.377 207.452 208.405 207.452 203.77C207.452 199.135 193.295 194.187 172.196 194.187V194.163Z" fill="#231F20"/>
<path d="M142.187 182.419V197.238C142.187 202.833 158.206 207.385 177.96 207.385C197.714 207.385 213.745 202.833 213.745 197.238V182.419H142.187Z" fill="white"/>
<path d="M177.96 207.985C157.546 207.985 141.587 203.254 141.587 197.177V182.419C141.587 182.26 141.65 182.107 141.762 181.994C141.875 181.882 142.028 181.819 142.187 181.819H213.709C213.868 181.819 214.021 181.882 214.133 181.994C214.246 182.107 214.309 182.26 214.309 182.419V197.237C214.345 203.254 198.362 207.985 177.96 207.985ZM142.787 183.019V197.237C142.787 201.849 156.921 206.844 177.96 206.844C198.999 206.844 213.144 201.909 213.144 197.237V183.019H142.787Z" fill="#231F20"/>
<path d="M177.96 192.566C197.723 192.566 213.745 188.023 213.745 182.419C213.745 176.815 197.723 172.272 177.96 172.272C158.196 172.272 142.175 176.815 142.175 182.419C142.175 188.023 158.196 192.566 177.96 192.566Z" fill="#231F20"/>
<path d="M177.96 193.107C157.606 193.107 141.659 188.411 141.659 182.419C141.659 176.427 157.606 171.744 177.96 171.744C198.314 171.744 214.273 176.439 214.273 182.419C214.273 188.399 198.326 193.107 177.96 193.107ZM177.96 172.8C156.873 172.8 142.715 177.784 142.715 182.407C142.715 187.03 156.873 192.014 177.96 192.014C199.047 192.014 213.216 187.042 213.216 182.407C213.216 177.772 199.047 172.8 177.96 172.8Z" fill="#231F20"/>
<path d="M136.411 160.96V175.766C136.411 181.374 152.442 185.913 172.196 185.913C191.95 185.913 207.981 181.374 207.981 175.766V160.96H136.411Z" fill="white"/>
<path d="M172.196 186.514C151.782 186.514 135.811 181.795 135.811 175.766V160.96C135.814 160.802 135.878 160.651 135.99 160.539C136.102 160.427 136.253 160.363 136.411 160.36H207.981C208.14 160.36 208.293 160.423 208.405 160.535C208.518 160.648 208.581 160.801 208.581 160.96V175.766C208.581 181.795 192.598 186.514 172.196 186.514ZM137.011 161.621V175.826C137.011 180.438 151.157 185.373 172.196 185.373C193.235 185.373 207.38 180.438 207.38 175.826V161.621H137.011Z" fill="#231F20"/>
<path d="M172.196 171.107C191.959 171.107 207.981 166.564 207.981 160.96C207.981 155.356 191.959 150.813 172.196 150.813C152.432 150.813 136.411 155.356 136.411 160.96C136.411 166.564 152.432 171.107 172.196 171.107Z" fill="#231F20"/>
<path d="M172.196 171.636C151.782 171.636 135.883 166.952 135.883 160.96C135.883 154.968 151.842 150.285 172.196 150.285C192.55 150.285 208.509 154.98 208.509 160.96C208.509 166.94 192.562 171.636 172.196 171.636ZM172.196 151.341C151.109 151.341 136.951 156.313 136.951 160.948C136.951 165.583 151.109 170.555 172.196 170.555C193.283 170.555 207.452 165.583 207.452 160.948C207.452 156.313 193.295 151.341 172.196 151.341Z" fill="#231F20"/>
<path d="M147.951 143.416V158.222C147.951 163.818 163.97 168.369 183.736 168.369C203.502 168.369 219.509 163.818 219.509 158.222V143.416H147.951Z" fill="white"/>
<path d="M183.688 168.97C163.274 168.97 147.303 164.25 147.303 158.162V143.416C147.303 143.257 147.366 143.104 147.478 142.991C147.591 142.879 147.744 142.815 147.903 142.815H219.461C219.62 142.815 219.773 142.879 219.885 142.991C219.998 143.104 220.061 143.257 220.061 143.416V158.222C220.109 164.25 204.102 168.97 183.688 168.97ZM148.503 144.016V158.222C148.503 162.833 162.637 167.829 183.688 167.829C204.739 167.829 218.86 162.893 218.86 158.222V144.016H148.503Z" fill="#231F20"/>
<path d="M183.736 153.563C203.499 153.563 219.521 149.02 219.521 143.416C219.521 137.812 203.499 133.269 183.736 133.269C163.972 133.269 147.951 137.812 147.951 143.416C147.951 149.02 163.972 153.563 183.736 153.563Z" fill="#231F20"/>
<path d="M183.688 154.091C163.274 154.091 147.375 149.396 147.375 143.404C147.375 137.412 163.322 132.729 183.688 132.729C204.054 132.729 219.989 137.424 219.989 143.404C219.989 149.384 204.102 154.091 183.688 154.091ZM183.688 133.785C162.601 133.785 148.431 138.769 148.431 143.392C148.431 148.015 162.601 152.999 183.688 152.999C204.775 152.999 218.932 148.015 218.932 143.392C218.932 138.769 204.823 133.785 183.688 133.785Z" fill="#231F20"/>
<path d="M140.098 125.86V140.666C140.098 146.274 156.117 150.813 175.882 150.813C195.648 150.813 211.667 146.274 211.667 140.666V125.86H140.098Z" fill="white"/>
<path d="M175.882 151.413C155.468 151.413 139.497 146.694 139.497 140.666V125.86C139.497 125.7 139.56 125.548 139.673 125.435C139.786 125.323 139.938 125.259 140.098 125.259H211.667C211.827 125.259 211.979 125.323 212.092 125.435C212.205 125.548 212.268 125.7 212.268 125.86V140.666C212.268 146.694 196.285 151.413 175.882 151.413ZM140.698 126.46V140.666C140.698 145.277 154.832 150.213 175.882 150.213C196.933 150.213 211.067 145.277 211.067 140.666V126.46H140.698Z" fill="#231F20"/>
<path d="M175.882 136.007C195.646 136.007 211.667 131.464 211.667 125.86C211.667 120.256 195.646 115.713 175.882 115.713C156.119 115.713 140.098 120.256 140.098 125.86C140.098 131.464 156.119 136.007 175.882 136.007Z" fill="white"/>
<path d="M175.882 136.607C155.468 136.607 139.497 131.888 139.497 125.86C139.497 119.831 155.48 115.112 175.882 115.112C196.285 115.112 212.268 119.831 212.268 125.86C212.268 131.888 196.285 136.607 175.882 136.607ZM175.882 116.313C154.832 116.313 140.698 121.248 140.698 125.86C140.698 130.471 154.832 135.406 175.882 135.406C196.933 135.406 211.067 130.471 211.067 125.86C211.067 121.248 196.897 116.313 175.882 116.313Z" fill="#231F20"/>
<path d="M175.882 132.608C161.04 132.608 145.261 130.207 145.261 125.86C145.261 121.513 161.04 119.099 175.882 119.099C190.725 119.099 206.492 121.501 206.492 125.86C206.492 130.219 190.725 132.608 175.882 132.608ZM175.882 120.3C158.542 120.3 146.462 123.23 146.462 125.86C146.462 128.49 158.542 131.408 175.882 131.408C193.223 131.408 205.303 128.49 205.303 125.86C205.303 123.23 193.211 120.3 175.882 120.3Z" fill="#D1D3D4"/>
<path d="M311.553 221.35V236.156C311.553 241.764 295.534 246.315 275.78 246.315C256.026 246.315 239.995 241.764 239.995 236.156V221.35H311.553Z" fill="white"/>
<path d="M275.78 246.88C255.366 246.88 239.395 242.148 239.395 236.072V221.35C239.395 221.191 239.458 221.038 239.571 220.925C239.683 220.813 239.836 220.75 239.995 220.75H311.553C311.712 220.75 311.865 220.813 311.978 220.925C312.09 221.038 312.153 221.191 312.153 221.35V236.156C312.177 242.184 296.17 246.88 275.78 246.88ZM240.596 221.914V236.12C240.596 240.743 254.729 245.727 275.78 245.727C296.831 245.727 310.953 240.791 310.953 236.12V221.95L240.596 221.914Z" fill="#231F20"/>
<path d="M275.78 231.497C295.544 231.497 311.565 226.954 311.565 221.35C311.565 215.746 295.544 211.203 275.78 211.203C256.017 211.203 239.995 215.746 239.995 221.35C239.995 226.954 256.017 231.497 275.78 231.497Z" fill="#231F20"/>
<path d="M275.78 232.038C255.366 232.038 239.467 227.342 239.467 221.35C239.467 215.358 255.414 210.675 275.78 210.675C296.146 210.675 312.081 215.37 312.081 221.35C312.081 227.33 296.134 232.038 275.78 232.038ZM275.78 211.732C254.681 211.732 240.523 216.715 240.523 221.338C240.523 225.961 254.681 230.945 275.78 230.945C296.879 230.945 311.025 225.973 311.025 221.338C311.025 216.703 296.867 211.732 275.78 211.732Z" fill="#231F20"/>
<path d="M316.212 203.806V218.612C316.212 224.22 300.193 228.76 280.427 228.76C260.661 228.76 244.654 224.22 244.654 218.612V203.806H316.212Z" fill="white"/>
<path d="M280.427 229.36C260.013 229.36 244.054 224.64 244.054 218.612V203.806C244.054 203.647 244.117 203.494 244.23 203.381C244.342 203.269 244.495 203.206 244.654 203.206H316.212C316.371 203.206 316.524 203.269 316.637 203.381C316.749 203.494 316.813 203.647 316.813 203.806V218.612C316.813 224.64 300.829 229.36 280.427 229.36ZM245.255 204.406V218.612C245.255 223.224 259.389 228.159 280.427 228.159C301.466 228.159 315.612 223.224 315.612 218.612V204.406H245.255Z" fill="#231F20"/>
<path d="M280.427 213.953C300.191 213.953 316.212 209.41 316.212 203.806C316.212 198.202 300.191 193.659 280.427 193.659C260.664 193.659 244.642 198.202 244.642 203.806C244.642 209.41 260.664 213.953 280.427 213.953Z" fill="#231F20"/>
<path d="M280.427 214.458C260.073 214.458 244.126 209.762 244.126 203.782C244.126 197.802 260.073 193.107 280.427 193.107C300.781 193.107 316.741 197.79 316.741 203.782C316.741 209.774 300.793 214.458 280.427 214.458ZM280.427 194.163C259.341 194.163 245.183 199.135 245.183 203.77C245.183 208.405 259.341 213.377 280.427 213.377C301.514 213.377 315.684 208.405 315.684 203.77C315.684 199.135 301.514 194.187 280.427 194.187V194.163Z" fill="#231F20"/>
<path d="M310.448 182.419V197.238C310.448 202.833 294.429 207.385 274.663 207.385C254.898 207.385 238.878 202.833 238.878 197.238V182.419H310.448Z" fill="white"/>
<path d="M274.663 207.985C254.249 207.985 238.278 203.254 238.278 197.177V182.419C238.281 182.261 238.345 182.11 238.457 181.998C238.569 181.886 238.72 181.822 238.878 181.819H310.448C310.607 181.819 310.76 181.882 310.873 181.994C310.985 182.107 311.049 182.26 311.049 182.419V197.237C311.049 203.254 295.065 207.985 274.663 207.985ZM239.479 183.019V197.237C239.479 201.849 253.625 206.844 274.663 206.844C295.702 206.844 309.848 201.909 309.848 197.237V183.019H239.479Z" fill="#231F20"/>
<path d="M274.663 192.566C294.427 192.566 310.448 188.023 310.448 182.419C310.448 176.815 294.427 172.272 274.663 172.272C254.9 172.272 238.878 176.815 238.878 182.419C238.878 188.023 254.9 192.566 274.663 192.566Z" fill="#231F20"/>
<path d="M274.663 193.107C254.309 193.107 238.35 188.411 238.35 182.419C238.35 176.427 254.309 171.744 274.663 171.744C295.017 171.744 310.977 176.439 310.977 182.419C310.977 188.399 295.029 193.107 274.663 193.107ZM274.663 172.8C253.577 172.8 239.419 177.784 239.419 182.407C239.419 187.03 253.577 192.014 274.663 192.014C295.75 192.014 309.92 187.042 309.92 182.407C309.92 177.772 295.75 172.8 274.663 172.8Z" fill="#231F20"/>
<path d="M316.212 160.96V175.766C316.212 181.374 300.193 185.913 280.427 185.913C260.661 185.913 244.654 181.374 244.654 175.766V160.96H316.212Z" fill="white"/>
<path d="M280.427 186.514C260.013 186.514 244.054 181.795 244.054 175.766V160.96C244.054 160.801 244.117 160.648 244.23 160.535C244.342 160.423 244.495 160.36 244.654 160.36H316.212C316.371 160.36 316.524 160.423 316.637 160.535C316.749 160.648 316.813 160.801 316.813 160.96V175.766C316.813 181.795 300.829 186.514 280.427 186.514ZM245.255 161.621V175.826C245.255 180.438 259.389 185.373 280.427 185.373C301.466 185.373 315.612 180.438 315.612 175.826V161.621H245.255Z" fill="#231F20"/>
<path d="M280.427 171.107C300.191 171.107 316.212 166.564 316.212 160.96C316.212 155.356 300.191 150.813 280.427 150.813C260.664 150.813 244.642 155.356 244.642 160.96C244.642 166.564 260.664 171.107 280.427 171.107Z" fill="#231F20"/>
<path d="M280.427 171.636C260.073 171.636 244.126 166.952 244.126 160.96C244.126 154.968 260.073 150.285 280.427 150.285C300.781 150.285 316.741 154.98 316.741 160.96C316.741 166.94 300.793 171.636 280.427 171.636ZM280.427 151.341C259.341 151.341 245.183 156.313 245.183 160.948C245.183 165.583 259.341 170.555 280.427 170.555C301.514 170.555 315.684 165.583 315.684 160.948C315.684 156.313 301.514 151.341 280.427 151.341Z" fill="#231F20"/>
<path d="M304.684 143.416V158.222C304.684 163.818 288.665 168.369 268.899 168.369C249.133 168.369 233.114 163.818 233.114 158.222V143.416H304.684Z" fill="white"/>
<path d="M268.947 168.97C248.533 168.97 232.562 164.25 232.562 158.162V143.416C232.562 143.257 232.625 143.104 232.738 142.991C232.85 142.879 233.003 142.815 233.162 142.815H304.732C304.891 142.815 305.044 142.879 305.157 142.991C305.269 143.104 305.333 143.257 305.333 143.416V158.222C305.285 164.25 289.362 168.97 268.947 168.97ZM233.763 144.016V158.222C233.763 162.833 247.897 167.829 268.947 167.829C289.998 167.829 304.132 162.893 304.132 158.222V144.016H233.763Z" fill="#231F20"/>
<path d="M268.899 153.563C288.663 153.563 304.684 149.02 304.684 143.416C304.684 137.812 288.663 133.269 268.899 133.269C249.136 133.269 233.114 137.812 233.114 143.416C233.114 149.02 249.136 153.563 268.899 153.563Z" fill="#231F20"/>
<path d="M268.947 154.091C248.533 154.091 232.634 149.396 232.634 143.404C232.634 137.412 248.533 132.729 268.947 132.729C289.361 132.729 305.261 137.424 305.261 143.404C305.261 149.384 289.265 154.091 268.947 154.091ZM268.947 133.785C247.861 133.785 233.691 138.769 233.691 143.392C233.691 148.015 247.861 152.999 268.947 152.999C290.034 152.999 304.204 148.015 304.204 143.392C304.204 138.769 289.986 133.785 268.947 133.785Z" fill="#231F20"/>
<path d="M312.526 125.86V140.666C312.526 146.274 296.506 150.813 276.753 150.813C256.999 150.813 240.968 146.274 240.968 140.666V125.86H312.526Z" fill="white"/>
<path d="M276.753 151.413C256.339 151.413 240.367 146.694 240.367 140.666V125.86C240.367 125.7 240.431 125.548 240.543 125.435C240.656 125.323 240.809 125.259 240.968 125.259H312.526C312.685 125.259 312.838 125.323 312.95 125.435C313.063 125.548 313.126 125.7 313.126 125.86V140.666C313.126 146.694 297.155 151.413 276.753 151.413ZM241.568 126.46V140.666C241.568 145.277 255.702 150.213 276.753 150.213C297.803 150.213 311.925 145.277 311.925 140.666V126.46H241.568Z" fill="#231F20"/>
<path d="M276.753 136.007C296.516 136.007 312.538 131.464 312.538 125.86C312.538 120.256 296.516 115.713 276.753 115.713C256.989 115.713 240.968 120.256 240.968 125.86C240.968 131.464 256.989 136.007 276.753 136.007Z" fill="#231F20"/>
<path d="M276.753 136.535C256.339 136.535 240.439 131.852 240.439 125.86C240.439 119.867 256.387 115.184 276.753 115.184C297.119 115.184 313.066 119.867 313.066 125.86C313.066 131.852 297.107 136.535 276.753 136.535ZM276.753 116.241C255.666 116.241 241.496 121.212 241.496 125.848C241.496 130.483 255.666 135.454 276.753 135.454C297.839 135.454 311.997 130.483 311.997 125.848C311.997 121.212 297.839 116.241 276.753 116.241Z" fill="#231F20"/>
<path d="M313.786 105.974V120.792C313.786 126.4 297.767 130.939 278.002 130.939C258.236 130.939 242.229 126.4 242.229 120.792V105.974H313.786Z" fill="white"/>
<path d="M278.002 131.528C257.587 131.528 241.628 126.808 241.628 120.78V105.974C241.628 105.815 241.692 105.662 241.804 105.549C241.917 105.437 242.069 105.373 242.229 105.373H313.787C313.946 105.373 314.098 105.437 314.211 105.549C314.324 105.662 314.387 105.815 314.387 105.974V120.792C314.387 126.796 298.404 131.528 278.002 131.528ZM242.829 106.574V120.792C242.829 125.403 256.963 130.339 278.002 130.339C299.04 130.339 313.186 125.403 313.186 120.792V106.574H242.829Z" fill="#231F20"/>
<path d="M278.002 116.121C297.765 116.121 313.787 111.578 313.787 105.974C313.787 100.37 297.765 95.8267 278.002 95.8267C258.238 95.8267 242.217 100.37 242.217 105.974C242.217 111.578 258.238 116.121 278.002 116.121Z" fill="#231F20"/>
<path d="M278.002 116.649C257.587 116.649 241.7 111.966 241.7 105.974C241.7 99.9817 257.647 95.2985 278.002 95.2985C298.356 95.2985 314.315 99.9937 314.315 105.974C314.315 111.954 298.368 116.649 278.002 116.649ZM278.002 96.3552C256.915 96.3552 242.757 101.327 242.757 105.962C242.757 110.597 256.915 115.569 278.002 115.569C299.088 115.569 313.258 110.597 313.258 105.962C313.258 101.327 299.088 96.3552 278.002 96.3552Z" fill="#231F20"/>
<path d="M306.762 86.5923V101.399C306.762 107.007 290.743 111.546 270.977 111.546C251.211 111.546 235.204 107.007 235.204 101.399V86.5923H306.762Z" fill="white"/>
<path d="M270.977 112.146C250.563 112.146 234.603 107.427 234.603 101.339V86.5922C234.603 86.433 234.667 86.2803 234.779 86.1677C234.892 86.0551 235.045 85.9918 235.204 85.9918H306.762C306.921 85.9918 307.074 86.0551 307.186 86.1677C307.299 86.2803 307.362 86.433 307.362 86.5922V101.399C307.374 107.427 291.379 112.146 270.977 112.146ZM235.804 87.1686V101.375C235.804 105.986 249.938 110.981 270.977 110.981C292.015 110.981 306.161 106.046 306.161 101.375V87.1686H235.804Z" fill="#231F20"/>
<path d="M270.977 96.7393C290.74 96.7393 306.762 92.1963 306.762 86.5923C306.762 80.9882 290.74 76.4452 270.977 76.4452C251.213 76.4452 235.192 80.9882 235.192 86.5923C235.192 92.1963 251.213 96.7393 270.977 96.7393Z" fill="#231F20"/>
<path d="M270.977 97.2679C250.623 97.2679 234.675 92.5846 234.675 86.5924C234.675 80.6003 250.623 75.917 270.977 75.917C291.331 75.917 307.29 80.6123 307.29 86.5924C307.29 92.5726 291.343 97.2679 270.977 97.2679ZM270.977 76.9737C249.89 76.9737 235.732 81.9452 235.732 86.5804C235.732 91.2157 249.89 96.1871 270.977 96.1871C292.063 96.1871 306.233 91.2157 306.233 86.5804C306.233 81.9452 292.075 76.9737 270.977 76.9737Z" fill="#231F20"/>
<path d="M316.212 66.7544V81.5247C316.212 87.1206 300.193 91.6717 280.427 91.6717C260.661 91.6717 244.654 87.1206 244.654 81.5247V66.7544H316.212Z" fill="white"/>
<path d="M280.427 92.2724C260.013 92.2724 244.054 87.5531 244.054 81.4648V66.7546C244.054 66.5954 244.117 66.4426 244.23 66.33C244.342 66.2174 244.495 66.1542 244.654 66.1542H316.212C316.371 66.1542 316.524 66.2174 316.637 66.33C316.749 66.4426 316.813 66.5954 316.813 66.7546V81.5249C316.813 87.5531 300.829 92.2724 280.427 92.2724ZM245.255 67.319V81.5249C245.255 86.1361 259.389 91.1316 280.427 91.1316C301.466 91.1316 315.612 86.1961 315.612 81.5249V67.319H245.255Z" fill="#231F20"/>
<path d="M280.427 76.8655C300.191 76.8655 316.212 72.3226 316.212 66.7185C316.212 61.1144 300.191 56.5714 280.427 56.5714C260.664 56.5714 244.642 61.1144 244.642 66.7185C244.642 72.3226 260.664 76.8655 280.427 76.8655Z" fill="white"/>
<path d="M280.427 77.4659C260.013 77.4659 244.054 72.7346 244.054 66.6584C244.054 60.5821 260.025 55.8508 280.427 55.8508C300.829 55.8508 316.813 60.5821 316.813 66.6584C316.813 72.7346 300.829 77.4659 280.427 77.4659ZM280.427 57.1597C259.389 57.1597 245.255 62.0952 245.255 66.7664C245.255 71.4377 259.389 76.3731 280.427 76.3731C301.466 76.3731 315.612 71.4377 315.612 66.7664C315.612 62.0952 301.478 57.1477 280.427 57.1477V57.1597Z" fill="#231F20"/>
<path d="M280.427 73.4672C265.585 73.4672 249.818 71.0655 249.818 66.7185C249.818 62.3715 265.585 59.9578 280.427 59.9578C295.27 59.9578 311.049 62.3594 311.049 66.7185C311.049 71.0775 295.27 73.4672 280.427 73.4672ZM280.427 61.1586C263.099 61.1586 251.019 64.0886 251.019 66.7185C251.019 69.3483 263.099 72.2663 280.427 72.2663C297.755 72.2663 309.848 69.3363 309.848 66.7185C309.848 64.1007 297.767 61.1586 280.427 61.1586Z" fill="#D1D3D4"/>
</svg>
