<svg width="25" height="25" viewBox="0 0 25 25" fill="none" xmlns="http://www.w3.org/2000/svg">
<path d="M24.5683 6.58216C23.3954 5.87333 22.1413 5.11764 20.9142 4.36781C20.8871 4.35023 20.86 4.33266 20.8261 4.31508C20.6905 4.22721 20.5346 4.13348 20.3448 4.08076L20.3312 4.0749C17.05 3.3895 13.7146 2.68653 10.4876 2.00699C7.55895 1.3919 4.63706 0.776795 1.70839 0.161696C1.63382 0.144122 1.55924 0.126547 1.47789 0.108973C1.2135 0.044534 0.90843 -0.025763 0.583022 0.00938559C0.488112 0.0211018 0.406759 0.0503923 0.332186 0.091399L0.250835 0.14998C0.122028 0.255425 0.0542348 0.390162 0.0203382 0.466317L0 0.513181V0.782653L0.0135584 0.82366C1.86431 5.3051 3.76253 9.85098 5.59294 14.2504C7.00304 17.6364 8.46738 21.1454 9.89781 24.5899C9.98594 24.8243 10.2368 24.9766 10.5486 25H10.6164C10.9079 25 11.1655 24.877 11.2944 24.6778L16.6636 17.9117C17.972 16.2656 19.2804 14.6136 20.5888 12.9675C21.1244 12.2938 21.6599 11.6143 22.1955 10.9406C23.0768 9.82755 23.9853 8.67936 24.8869 7.56046L24.9344 7.50188V7.43159C24.9547 7.22655 24.9615 6.80477 24.5683 6.58216ZM18.2771 9.04842C17.0161 9.61665 15.728 10.2025 14.4332 10.7824C15.1857 10.0853 15.945 9.38233 16.6975 8.68522C17.6398 7.80651 18.6228 6.8985 19.5855 6.00807L19.6058 5.9905C19.6872 5.89677 19.7888 5.8089 19.8973 5.71517C19.9719 5.65073 20.0532 5.58629 20.1278 5.51013C20.6295 5.8089 21.1379 6.11352 21.626 6.41228C21.9786 6.62903 22.3379 6.84578 22.704 7.06253C21.2125 7.71863 19.7211 8.39231 18.2771 9.04842ZM15.0365 8.76723C14.0671 9.67524 13.0638 10.6067 12.0672 11.5264C10.1351 9.49949 8.16231 7.4433 6.25054 5.45741C5.38278 4.55526 4.50825 3.64726 3.6405 2.74511L3.63372 2.73926C3.43712 2.54594 3.2473 2.33505 3.05748 2.13587C2.93545 2.00114 2.80664 1.87226 2.67783 1.73752C3.46423 1.91327 4.25742 2.07729 5.03704 2.23546C5.72175 2.37605 6.43358 2.52251 7.13185 2.67482C11.0639 3.50081 15.0026 4.3268 18.9347 5.15279C17.6262 6.35956 16.3111 7.5839 15.0365 8.76723ZM11.6265 20.1847C11.7011 19.5696 11.7825 18.9369 11.8503 18.3159C11.9113 17.818 11.9723 17.3083 12.0333 16.8221C12.1282 16.043 12.2299 15.2346 12.3113 14.4437L12.3316 14.3031C12.3994 13.7993 12.4672 13.278 12.5079 12.7566C12.5824 12.7214 12.6638 12.6863 12.7519 12.657C12.8536 12.616 12.9553 12.5808 13.057 12.5281C14.623 11.8193 16.189 11.1105 17.7618 10.4075C19.3279 9.70453 20.9346 8.97812 22.5277 8.25758C21.0769 10.0736 19.6194 11.9072 18.2093 13.6939C16.9958 15.2228 15.7484 16.7987 14.5078 18.3511C14.0196 18.972 13.5112 19.6047 13.0299 20.2139C12.4875 20.8935 11.9316 21.5906 11.3893 22.2877C11.4571 21.5847 11.5384 20.8759 11.6265 20.1847ZM2.17616 3.12003C2.08803 2.90914 1.99312 2.69239 1.91177 2.48736C3.74219 4.3971 5.58616 6.31855 7.38268 8.18142C8.31145 9.14801 9.24022 10.1087 10.169 11.0812C10.352 11.2628 10.5351 11.4561 10.7113 11.6436C10.9418 11.8837 11.1723 12.1356 11.4232 12.3758C11.3418 12.9792 11.274 13.5884 11.1994 14.1742C11.152 14.5843 11.1045 14.9944 11.0503 15.4103V15.4162C11.03 15.6798 10.9893 15.9434 10.9554 16.2011C10.9079 16.5585 10.7995 17.3669 10.7995 17.3669L10.7927 17.4079C10.6707 18.5912 10.5215 19.7863 10.3791 20.9462C10.3181 21.4266 10.2639 21.9186 10.2029 22.4107C10.169 22.3229 10.1283 22.235 10.0944 22.153C9.99272 21.9186 9.89103 21.6726 9.79612 21.4324L9.07073 19.6926C6.77254 14.1684 4.47435 8.65007 2.17616 3.12003Z" fill="white"/>
</svg>
