<svg width="41" height="47" viewBox="0 0 41 47" fill="none" xmlns="http://www.w3.org/2000/svg">
<path d="M40.3859 12.3745C38.458 11.0419 36.3964 9.62116 34.3793 8.21147C34.3347 8.17843 34.2901 8.14539 34.2344 8.11236C34.0115 7.94716 33.7552 7.77095 33.4432 7.67183L33.4209 7.66081C28.0272 6.37227 22.5443 5.05068 17.2398 3.77315C12.4256 2.61676 7.62251 1.46038 2.80829 0.303988C2.68571 0.270949 2.56312 0.237909 2.4294 0.204869C1.99478 0.0837238 1.4933 -0.0484344 0.958386 0.0176449C0.80237 0.0396713 0.66864 0.0947376 0.546056 0.17183L0.412328 0.281962C0.200592 0.4802 0.0891525 0.733504 0.0334324 0.876676L0 0.964781V1.47139L0.0222877 1.54848C3.0646 9.97359 6.18493 18.5198 9.19381 26.7908C11.5118 33.1564 13.9189 39.7533 16.2703 46.2291C16.4151 46.6696 16.8275 46.9559 17.3401 47H17.4515C17.9307 47 18.3542 46.7687 18.5659 46.3943L27.392 33.674C29.5428 30.5793 31.6936 27.4736 33.8444 24.3789C34.7248 23.1123 35.6051 21.8348 36.4855 20.5683C37.9342 18.4758 39.4275 16.3172 40.9097 14.2137L40.9877 14.1035V13.9714C41.0211 13.5859 41.0323 12.793 40.3859 12.3745ZM30.0443 17.011C27.9715 18.0793 25.8541 19.1806 23.7256 20.2709C24.9626 18.9604 26.2107 17.6388 27.4477 16.3282C28.9967 14.6762 30.6126 12.9692 32.1951 11.2952L32.2285 11.2621C32.3622 11.0859 32.5294 10.9207 32.7077 10.7445C32.8303 10.6234 32.964 10.5022 33.0866 10.359C33.9112 10.9207 34.747 11.4934 35.5494 12.0551C36.1289 12.4626 36.7195 12.8701 37.3213 13.2775C34.8696 14.511 32.4179 15.7775 30.0443 17.011ZM24.7174 16.4824C23.1238 18.1894 21.4745 19.9405 19.8363 21.6696C16.6603 17.859 13.4174 13.9934 10.2748 10.2599C8.84835 8.5639 7.41077 6.85685 5.98434 5.16081L5.97319 5.1498C5.65002 4.78637 5.33798 4.38989 5.02595 4.01544C4.82536 3.76214 4.61362 3.51985 4.40189 3.26654C5.69459 3.59694 6.99844 3.90531 8.28 4.20266C9.40555 4.46698 10.5757 4.74231 11.7235 5.02866C18.187 6.58152 24.6617 8.13438 31.1252 9.68724C28.9744 11.956 26.8125 14.2577 24.7174 16.4824ZM19.112 37.9471C19.2346 36.7908 19.3683 35.6013 19.4797 34.4339C19.58 33.4978 19.6803 32.5397 19.7806 31.6256C19.9366 30.1608 20.1038 28.641 20.2375 27.1542L20.271 26.8899C20.3824 25.9427 20.4938 24.9626 20.5607 23.9824C20.6833 23.9163 20.817 23.8502 20.9619 23.7952C21.1291 23.7181 21.2962 23.652 21.4634 23.5529C24.0376 22.2203 26.6119 20.8877 29.1973 19.5661C31.7716 18.2445 34.4127 16.8789 37.0316 15.5242C34.6467 18.9383 32.2508 22.3855 29.9328 25.7445C27.9381 28.619 25.8876 31.5815 23.8482 34.5C23.0458 35.6674 22.21 36.8568 21.4188 38.0022C20.5273 39.2797 19.6135 40.5903 18.7219 41.9009C18.8334 40.5793 18.9671 39.2467 19.112 37.9471ZM3.57723 5.86566C3.43236 5.46918 3.27634 5.0617 3.14261 4.67623C6.1515 8.26654 9.18267 11.8789 12.1358 15.3811C13.6626 17.1983 15.1893 19.0044 16.716 20.8326C17.0169 21.174 17.3178 21.5375 17.6075 21.8899C17.9864 22.3414 18.3653 22.815 18.7777 23.2665C18.6439 24.4009 18.5325 25.5463 18.4099 26.6476C18.3319 27.4185 18.2539 28.1894 18.1647 28.9714V28.9824C18.1313 29.478 18.0645 29.9736 18.0087 30.4582C17.9307 31.13 17.7524 32.6498 17.7524 32.6498L17.7413 32.7269C17.5407 34.9515 17.2955 37.1982 17.0615 39.3789C16.9612 40.2819 16.872 41.2071 16.7717 42.1322C16.716 41.967 16.6492 41.8018 16.5934 41.6476C16.4263 41.2071 16.2591 40.7445 16.1031 40.293L14.9107 37.022C11.1329 26.6366 7.35505 16.2621 3.57723 5.86566Z" fill="#05299E"/>
</svg>
