<svg width="175" height="87" viewBox="0 0 175 87" fill="none" xmlns="http://www.w3.org/2000/svg">
<path d="M71.4815 21.8622C68.0692 19.5078 64.4202 16.9979 60.85 14.5073C60.7711 14.449 60.6922 14.3906 60.5936 14.3322C60.1991 14.0404 59.7455 13.729 59.1932 13.5539L59.1537 13.5345C49.6071 11.258 39.9026 8.92312 30.5138 6.66608C21.9928 4.62308 13.4915 2.58007 4.97057 0.53706C4.7536 0.478689 4.53663 0.420317 4.29994 0.361945C3.53068 0.147916 2.64308 -0.0855697 1.69631 0.0311735C1.42016 0.0700879 1.18347 0.167374 0.966499 0.303575L0.729805 0.498147C0.35504 0.848376 0.157797 1.29589 0.0591741 1.54884L0 1.70449V2.59952L0.0394484 2.73573C5.42423 17.6205 10.9471 32.7193 16.2727 47.3316C20.3754 58.5779 24.6359 70.2328 28.7978 81.6736C29.0542 82.4519 29.784 82.9578 30.6913 83.0356H30.8885C31.7367 83.0356 32.4862 82.627 32.861 81.9655L48.4828 59.4924C52.2896 54.0249 56.0964 48.538 59.9033 43.0705C61.4615 40.8329 63.0197 38.5759 64.578 36.3383C67.1422 32.6414 69.7852 28.8278 72.4086 25.1115L72.5467 24.9169V24.6834C72.6058 24.0024 72.6256 22.6015 71.4815 21.8622ZM53.1772 30.0536C49.5085 31.941 45.7608 33.8867 41.9934 35.813C44.1828 33.4976 46.392 31.1627 48.5814 28.8473C51.3231 25.9287 54.1832 22.9128 56.984 19.9553L57.0432 19.897C57.2799 19.5857 57.5758 19.2938 57.8914 18.9825C58.1083 18.7685 58.345 18.5544 58.562 18.3015C60.0216 19.2938 61.5009 20.3056 62.9211 21.2979C63.9468 22.0178 64.9922 22.7377 66.0573 23.4576C61.7179 25.6369 57.3785 27.8744 53.1772 30.0536ZM43.7489 29.1197C40.9283 32.1356 38.0091 35.2293 35.1096 38.284C29.4881 31.5518 23.7483 24.7224 18.186 18.1264C15.6612 15.13 13.1168 12.1141 10.592 9.11769L10.5723 9.09823C10.0003 8.45614 9.44803 7.75568 8.89574 7.09414C8.5407 6.64662 8.16594 6.21856 7.79117 5.77105C10.0792 6.35476 12.387 6.89957 14.6553 7.42491C16.6475 7.89188 18.7185 8.37831 20.7502 8.8842C32.1904 11.6277 43.6503 14.3711 55.0905 17.1146C51.2837 21.1228 47.4571 25.1893 43.7489 29.1197ZM33.8275 67.0418C34.0445 64.9988 34.2812 62.8974 34.4784 60.8349C34.6559 59.1811 34.8334 57.4883 35.011 55.8733C35.2871 53.2855 35.583 50.6004 35.8197 47.9737L35.8788 47.5067C36.0761 45.8334 36.2733 44.1017 36.3917 42.37C36.6086 42.2533 36.8453 42.1366 37.1018 42.0393C37.3976 41.9031 37.6935 41.7863 37.9894 41.6112C42.5457 39.2569 47.1021 36.9026 51.6782 34.5677C56.2345 32.2328 60.9092 29.8202 65.5445 27.4269C61.3234 33.4586 57.0827 39.5488 52.98 45.4832C49.4493 50.5615 45.82 55.7955 42.2104 60.9517C40.7902 63.0141 39.3109 65.1155 37.9105 67.1391C36.3325 69.3961 34.7151 71.7115 33.1371 74.0269C33.3344 71.692 33.5711 69.3377 33.8275 67.0418ZM6.33156 10.363C6.07514 9.66249 5.799 8.94257 5.5623 8.26157C10.8879 14.6046 16.253 20.9866 21.48 27.174C24.1822 30.3844 26.8845 33.5754 29.5867 36.8053C30.1193 37.4085 30.6519 38.0505 31.1647 38.6732C31.8353 39.4709 32.506 40.3076 33.2358 41.1053C32.9991 43.1094 32.8018 45.133 32.5849 47.0787C32.4468 48.4407 32.3087 49.8027 32.1509 51.1842V51.2036C32.0917 52.0792 31.9734 52.9548 31.8748 53.8109C31.7367 54.9978 31.4211 57.6829 31.4211 57.6829L31.4014 57.8191C31.0463 61.7494 30.6124 65.7187 30.1982 69.5712C30.0207 71.1667 29.8629 72.8011 29.6854 74.4355C29.5867 74.1437 29.4684 73.8518 29.3698 73.5794C29.0739 72.8011 28.778 71.9839 28.5019 71.1862L26.3914 65.4074C19.7048 47.0592 13.0182 28.7306 6.33156 10.363Z" fill="white"/>
<text fill="white" xml:space="preserve" style="white-space: pre" font-family="Montserrat" font-size="31.7762" font-weight="bold" letter-spacing="0em"><tspan x="64.4247" y="57.5281">TRON</tspan></text>
<text fill="white" xml:space="preserve" style="white-space: pre" font-family="Montserrat" font-size="23.8321" font-weight="bold" letter-spacing="0.12em"><tspan x="72.0638" y="81.0438">uxilary</tspan></text>
<line y1="-2.64802" x2="39.651" y2="-2.64802" transform="matrix(0.437542 0.899198 -0.903952 0.427635 52.8221 46.7639)" stroke="white" stroke-width="5.29603"/>
<line x1="40.1064" y1="66.5593" x2="66.8441" y2="66.5593" stroke="white" stroke-width="3.97202"/>
</svg>
