<svg width="13" height="15" viewBox="0 0 13 15" fill="none" xmlns="http://www.w3.org/2000/svg">
<path d="M12.5705 4.03941C12.0033 3.64269 11.3967 3.21974 10.8033 2.80007C10.7902 2.79023 10.7771 2.78039 10.7607 2.77056C10.6951 2.72138 10.6197 2.66892 10.5279 2.63941L10.5213 2.63613C8.93444 2.25252 7.32133 1.85908 5.76067 1.47875C4.34428 1.13449 2.93116 0.79023 1.51477 0.445968C1.4787 0.436132 1.44264 0.426295 1.40329 0.416459C1.27542 0.380394 1.12788 0.34105 0.970505 0.360722C0.924603 0.367279 0.885259 0.383673 0.849193 0.406623L0.809849 0.43941C0.747554 0.498427 0.714767 0.573837 0.698374 0.61646L0.688538 0.642689V0.793508L0.695095 0.816459C1.59018 3.32466 2.50821 5.86892 3.39346 8.33121C4.07542 10.2263 4.78362 12.1902 5.47542 14.1181C5.51805 14.2492 5.63936 14.3345 5.79018 14.3476H5.82296C5.96395 14.3476 6.08854 14.2788 6.15083 14.1673L8.74755 10.3804C9.38034 9.45908 10.0131 8.53449 10.6459 7.61318C10.9049 7.23613 11.1639 6.8558 11.423 6.47875C11.8492 5.8558 12.2885 5.21318 12.7246 4.58695L12.7476 4.55416V4.51482C12.7574 4.40007 12.7607 4.164 12.5705 4.03941ZM9.52788 5.41974C8.91805 5.73777 8.2951 6.06564 7.66887 6.39023C8.0328 6.00007 8.40001 5.60662 8.76395 5.21646C9.21969 4.72466 9.6951 4.21646 10.1607 3.7181L10.1705 3.70826C10.2099 3.6558 10.259 3.60662 10.3115 3.55416C10.3476 3.5181 10.3869 3.48203 10.423 3.43941C10.6656 3.60662 10.9115 3.77712 11.1476 3.94433C11.318 4.06564 11.4918 4.18695 11.6689 4.30826C10.9476 4.67548 10.2262 5.05252 9.52788 5.41974ZM7.96067 5.26236C7.49182 5.77056 7.00657 6.29187 6.5246 6.80662C5.59018 5.6722 4.63608 4.52138 3.71149 3.4099C3.29182 2.90498 2.86887 2.39679 2.44919 1.89187L2.44591 1.88859C2.35083 1.78039 2.25903 1.66236 2.16723 1.55089C2.10821 1.47548 2.04591 1.40334 1.98362 1.32793C2.36395 1.4263 2.74755 1.5181 3.1246 1.60662C3.45575 1.68531 3.80001 1.76728 4.13772 1.85252C6.03936 2.31482 7.94428 2.77712 9.84591 3.23941C9.21313 3.91482 8.57706 4.60007 7.96067 5.26236ZM6.31149 11.6525C6.34755 11.3083 6.3869 10.9542 6.41968 10.6066C6.44919 10.3279 6.4787 10.0427 6.50821 9.77056C6.55411 9.33449 6.60329 8.88203 6.64264 8.43941L6.65247 8.36072C6.68526 8.07875 6.71805 7.78695 6.73772 7.49515C6.77378 7.47548 6.81313 7.4558 6.85575 7.43941C6.90493 7.41646 6.95411 7.39679 7.00329 7.36728C7.76067 6.97056 8.51805 6.57384 9.2787 6.18039C10.0361 5.78695 10.8131 5.38039 11.5836 4.97712C10.882 5.99351 10.1771 7.01974 9.4951 8.01974C8.90821 8.87548 8.30493 9.75744 7.70493 10.6263C7.46887 10.9738 7.22296 11.3279 6.99018 11.6689C6.72788 12.0492 6.45903 12.4394 6.19673 12.8296C6.22952 12.4361 6.26887 12.0394 6.31149 11.6525ZM1.741 2.10171C1.69837 1.98367 1.65247 1.86236 1.61313 1.74761C2.49837 2.81646 3.39018 3.89187 4.25903 4.93449C4.70821 5.47548 5.15739 6.01318 5.60657 6.55744C5.6951 6.65908 5.78362 6.76728 5.86887 6.8722C5.98034 7.00662 6.09182 7.14761 6.21313 7.28203C6.17378 7.61974 6.141 7.96072 6.10493 8.28859C6.08198 8.5181 6.05903 8.74761 6.0328 8.98039V8.98367C6.02296 9.13121 6.00329 9.27875 5.9869 9.42302C5.96395 9.62302 5.91149 10.0755 5.91149 10.0755L5.90821 10.0984C5.84919 10.7607 5.77706 11.4296 5.70821 12.0788C5.6787 12.3476 5.65247 12.623 5.62296 12.8984C5.60657 12.8492 5.5869 12.8001 5.5705 12.7542C5.52132 12.623 5.47214 12.4853 5.42624 12.3509L5.07542 11.3771C3.96395 8.28531 2.85247 5.19679 1.741 2.10171Z" fill="white"/>
</svg>
